<?xml version="1.0" encoding="utf-8"?>
<!-- Generator: Adobe Illustrator 24.3.0, SVG Export Plug-In . SVG Version: 6.00 Build 0)  -->
<svg version="1.0" id="katman_1" xmlns="http://www.w3.org/2000/svg" xmlns:xlink="http://www.w3.org/1999/xlink" x="0px" y="0px"
	 viewBox="0 0 841.89 595.28" style="enable-background:new 0 0 841.89 595.28;" xml:space="preserve">
<path d="M624.13,95.05c-19.67-19.68-51.56-19.7-71.25-0.04l-76.2,76.04c-19.69,19.67-19.71,51.57-0.04,71.26
	c19.67,19.69,51.57,19.71,71.26,0.04l76.19-76.06C643.72,146.61,643.74,114.75,624.13,95.05L624.13,95.05z"/>
<path d="M624.08,428.88l-76.19-76.05c-19.68-19.67-51.58-19.65-71.25,0.04c0,0,0,0,0,0c-19.67,19.68-19.65,51.58,0.03,71.25
	c0,0,0.01,0.01,0.01,0.01l76.2,76.04c9.42,9.47,22.24,14.77,35.59,14.74c27.82,0.01,50.38-22.53,50.39-50.35
	C638.86,451.16,633.55,438.33,624.08,428.88z"/>
<path d="M471.61,297.57v-0.17c0.01-13.31-5.28-26.07-14.7-35.47L290.14,95.01c-19.4-19.91-51.27-20.31-71.18-0.91
	c-19.91,19.4-20.31,51.27-0.91,71.18c0.29,0.29,0.57,0.58,0.87,0.87l131.28,131.42L218.92,428.99
	c-19.77,19.54-19.96,51.41-0.41,71.18s51.41,19.96,71.18,0.41c0.15-0.15,0.3-0.3,0.45-0.45L456.9,333.18
	C466.38,323.76,471.68,310.93,471.61,297.57z"/>
</svg>
